<?xml version="1.0" encoding="UTF-8"?>
<svg version="1.1" xmlns="http://www.w3.org/2000/svg" width="204" height="192">
<path d="M0 0 C67.32 0 134.64 0 204 0 C204 63.36 204 126.72 204 192 C136.68 192 69.36 192 0 192 C0 128.64 0 65.28 0 0 Z " fill="#FEFEFD" transform="translate(0,0)"/>
<path d="M0 0 C4.84508357 4.30777028 8.50969794 9.33895379 9.8125 15.75 C9.89169167 17.55525894 9.91730035 19.36320182 9.90673828 21.17016602 C9.90276535 22.79819908 9.90276535 22.79819908 9.89871216 24.4591217 C9.89346527 25.6289006 9.88821838 26.7986795 9.8828125 28.00390625 C9.89140065 30.49284552 9.90187802 32.98177886 9.9140625 35.47070312 C9.93071653 39.38562439 9.93758641 43.2992218 9.91210938 47.21411133 C9.89103282 50.99902887 9.91448612 54.78159903 9.9453125 58.56640625 C9.92792023 59.72201553 9.91052795 60.87762482 9.89260864 62.06825256 C10.00554825 69.75818092 11.68616235 74.2187605 16.40939331 80.31895447 C17.8125 82.75 17.8125 82.75 17.67166138 85.41700745 C16.42761516 88.79512784 14.3379526 90.15114537 11.5 92.3125 C7.39744039 95.4463812 7.39744039 95.4463812 3.76953125 99.08984375 C1.8125 100.75 1.8125 100.75 -0.63671875 100.80859375 C-3.9808384 99.42075849 -5.6386615 97.54194102 -8 94.8125 C-8.79019531 93.91660156 -9.58039063 93.02070312 -10.39453125 92.09765625 C-12.1875 89.75 -12.1875 89.75 -12.1875 87.75 C-12.92613281 88.35328125 -13.66476563 88.9565625 -14.42578125 89.578125 C-26.14539341 98.81085631 -36.20965855 101.97769192 -51.1875 100.75 C-58.70628664 99.65351028 -63.62584103 96.86456415 -68.1875 90.75 C-73.78719235 81.59928323 -74.73219587 71.37954513 -72.609375 60.89453125 C-69.68179069 52.52430157 -63.46674242 45.23316023 -55.75 40.875 C-43.51445871 35.53620015 -30.39546038 34.04869237 -17.1875 34.75 C-17.38898283 31.99539892 -17.62235948 29.24998087 -17.875 26.5 C-17.95524414 25.33404297 -17.95524414 25.33404297 -18.03710938 24.14453125 C-18.42441585 20.20410882 -18.72326904 18.27820626 -21.3984375 15.234375 C-26.23024372 12.66282547 -30.8644825 13.07015809 -36.1875 13.75 C-42.65009274 16.3350371 -44.52366906 21.72818022 -47.1875 27.75 C-50.64716438 27.4729061 -54.10482798 27.17586237 -57.5625 26.875 C-58.54734375 26.79636719 -59.5321875 26.71773437 -60.546875 26.63671875 C-61.48789063 26.55292969 -62.42890625 26.46914063 -63.3984375 26.3828125 C-64.26774902 26.30949707 -65.13706055 26.23618164 -66.03271484 26.16064453 C-68.1875 25.75 -68.1875 25.75 -70.1875 23.75 C-69.82545019 16.50900383 -66.86194463 9.06967202 -61.8125 3.875 C-46.43488522 -9.97460655 -17.23483192 -12.51099925 0 0 Z " fill="#070A0A" transform="translate(131.1875,30.25)"/>
<path d="M0 0 C3.34931938 1.25306704 6.24750164 2.69173667 9.25 4.625 C33.17129979 19.08409676 61.82171656 25.51491155 89.625 19.8125 C91.76102946 19.24856694 93.8862832 18.64252911 96 18 C97.38131912 17.60869909 98.76284159 17.21811551 100.14453125 16.828125 C101.57655252 16.40976537 103.00756596 15.98793899 104.4375 15.5625 C105.0886377 15.36954346 105.73977539 15.17658691 106.41064453 14.9777832 C109.76663727 13.91883669 112.72494558 12.65091077 115.72265625 10.83984375 C119 9 119 9 123 9 C122.54016062 13.60646112 121.08287409 15.38153405 117.5625 18.3125 C112.72462344 22.07599098 107.76239292 24.84377126 102.1875 27.375 C101.49019775 27.69637939 100.79289551 28.01775879 100.07446289 28.34887695 C82.21028711 36.00784148 57.7495365 37.96678241 39.4375 30.9375 C36.56211039 29.73531475 33.77513544 28.41689497 31 27 C29.86691406 26.43667969 28.73382813 25.87335938 27.56640625 25.29296875 C17.5441884 19.84139292 7.11589395 12.01210638 0 3 C0 2.01 0 1.02 0 0 Z " fill="#F89920" transform="translate(35,133)"/>
<path d="M0 0 C0.70189453 0.00451172 1.40378906 0.00902344 2.12695312 0.01367188 C3.85550538 0.02543073 5.58401365 0.04336546 7.3125 0.0625 C7.42151505 2.89689137 7.50027904 5.72700203 7.5625 8.5625 C7.61277344 9.74972656 7.61277344 9.74972656 7.6640625 10.9609375 C7.77760733 17.88717232 5.84404733 22.60980441 1.77734375 28.15625 C-1.76107418 31.4141284 -4.47147605 32.50892613 -9.3125 32.75 C-13.35718642 32.53332037 -14.47682798 32.22261073 -17.8125 29.6875 C-21.73991706 24.18911612 -21.25888408 18.66158379 -20.6875 12.0625 C-18.4019807 7.13984305 -14.97055294 4.25200751 -10.6875 1.0625 C-7.06882441 -0.1437252 -3.76243749 -0.04566918 0 0 Z " fill="#F8F8F8" transform="translate(106.6875,79.9375)"/>
<path d="M0 0 C0.73283203 -0.00386719 1.46566406 -0.00773438 2.22070312 -0.01171875 C7.68413018 -0.00168491 7.68413018 -0.00168491 9.9375 1.125 C10.69297719 9.01553956 9.21131478 14.45249146 4.9375 21.125 C2.75 23.75 2.75 23.75 0.9375 25.125 C0.2775 25.125 -0.3825 25.125 -1.0625 25.125 C-0.86914062 24.42375 -0.67578125 23.7225 -0.4765625 23 C-0.21617187 22.05125 0.04421875 21.1025 0.3125 20.125 C0.56773437 19.196875 0.82296875 18.26875 1.0859375 17.3125 C2.0792276 13.59449668 3.00412617 9.8584953 3.9375 6.125 C-2.3325 5.795 -8.6025 5.465 -15.0625 5.125 C-9.89035275 -0.04714725 -6.91165037 -0.03666658 0 0 Z " fill="#F89D2A" transform="translate(160.0625,131.875)"/>
<path d="M0 0 C2.96175123 0.61277612 4.38058783 1.25372522 7 3 C4.03 3 1.06 3 -2 3 C-1.34 2.01 -0.68 1.02 0 0 Z " fill="#F89614" transform="translate(152,133)"/>
</svg>
